<svg width="24" height="24" viewBox="0 0 24 24" fill="none" xmlns="http://www.w3.org/2000/svg">
<path fill-rule="evenodd" clip-rule="evenodd" d="M15.1975 7.38015C15.2645 7.44711 15.2979 7.52412 15.2979 7.61117C15.2979 7.69823 15.2645 7.77524 15.1975 7.8422L11.25 11.7897L15.1975 15.7373C15.2645 15.8043 15.2979 15.8813 15.2979 15.9683C15.2979 16.0554 15.2645 16.1324 15.1975 16.1993L14.6953 16.7016C14.6283 16.7685 14.5513 16.802 14.4642 16.802C14.3772 16.802 14.3002 16.7685 14.2332 16.7016L9.55241 12.0208C9.48545 11.9538 9.45197 11.8768 9.45197 11.7897C9.45197 11.7027 9.48545 11.6257 9.55241 11.5587L14.2332 6.87791C14.3002 6.81095 14.3772 6.77747 14.4642 6.77747C14.5513 6.77747 14.6283 6.81095 14.6953 6.87791L15.1975 7.38015Z" fill="#14142B"/>
</svg>
