<svg width="36" height="36" viewBox="0 0 36 36" fill="none" xmlns="http://www.w3.org/2000/svg">
<path fill-rule="evenodd" clip-rule="evenodd" d="M25.9463 20.6809C26.0467 20.7814 26.097 20.8969 26.097 21.0275C26.097 21.158 26.0467 21.2736 25.9463 21.374L25.1929 22.1274C25.0925 22.2278 24.977 22.278 24.8464 22.278C24.7158 22.278 24.6003 22.2278 24.4999 22.1274L18.5785 16.206L12.6572 22.1274C12.5568 22.2278 12.4413 22.278 12.3107 22.278C12.1801 22.278 12.0646 22.2278 11.9641 22.1274L11.2108 21.374C11.1103 21.2736 11.0601 21.158 11.0601 21.0275C11.0601 20.8969 11.1103 20.7814 11.2108 20.6809L18.232 13.6597C18.3324 13.5593 18.448 13.509 18.5785 13.509C18.7091 13.509 18.8246 13.5593 18.9251 13.6597L25.9463 20.6809Z" fill="#1E3A8A"/>
</svg>
