<svg width="24" height="24" viewBox="0 0 24 24" fill="none" xmlns="http://www.w3.org/2000/svg">
<path fill-rule="evenodd" clip-rule="evenodd" d="M14.8761 11.5587C14.9431 11.6257 14.9766 11.7027 14.9766 11.7897C14.9766 11.8768 14.9431 11.9538 14.8761 12.0208L10.1953 16.7016C10.1284 16.7685 10.0513 16.802 9.96429 16.802C9.87724 16.802 9.80023 16.7685 9.73326 16.7016L9.23103 16.1993C9.16407 16.1324 9.13058 16.0554 9.13058 15.9683C9.13058 15.8813 9.16407 15.8043 9.23103 15.7373L13.1786 11.7897L9.23103 7.8422C9.16407 7.77523 9.13058 7.69823 9.13058 7.61117C9.13058 7.52412 9.16407 7.44711 9.23103 7.38014L9.73326 6.87791C9.80023 6.81095 9.87724 6.77747 9.96429 6.77747C10.0513 6.77747 10.1284 6.81095 10.1953 6.87791L14.8761 11.5587Z" fill="#14142B"/>
</svg>
