<svg width="24" height="20" viewBox="0 0 24 20" fill="none" xmlns="http://www.w3.org/2000/svg">
<path d="M9.62476 4.8736H9.49976C9.56851 4.8736 9.62476 4.81735 9.62476 4.7486V4.8736H14.3748V4.7486C14.3748 4.81735 14.431 4.8736 14.4998 4.8736H14.3748V5.9986H15.4998V4.7486C15.4998 4.19703 15.0513 3.7486 14.4998 3.7486H9.49976C8.94819 3.7486 8.49976 4.19703 8.49976 4.7486V5.9986H9.62476V4.8736ZM17.4998 5.9986H6.49976C6.22319 5.9986 5.99976 6.22203 5.99976 6.4986V6.9986C5.99976 7.06735 6.05601 7.1236 6.12476 7.1236H7.06851L7.45444 15.2955C7.47944 15.8283 7.92007 16.2486 8.45288 16.2486H15.5466C16.081 16.2486 16.5201 15.8298 16.5451 15.2955L16.931 7.1236H17.8748C17.9435 7.1236 17.9998 7.06735 17.9998 6.9986V6.4986C17.9998 6.22203 17.7763 5.9986 17.4998 5.9986ZM15.4263 15.1236H8.57319L8.19507 7.1236H15.8044L15.4263 15.1236Z" fill="#6B6B80"/>
</svg>
