<svg width="24" height="24" viewBox="0 0 24 24" fill="none" xmlns="http://www.w3.org/2000/svg">
<path fill-rule="evenodd" clip-rule="evenodd" d="M14.4857 8.31426V3.57318C14.6331 3.66693 14.7536 3.76068 14.8474 3.85443L18.9456 7.95265C19.0393 8.0464 19.1331 8.16694 19.2268 8.31426L14.4857 8.31426ZM13.2 8.63567C13.2 8.90353 13.2938 9.1312 13.4813 9.3187C13.6688 9.5062 13.8965 9.59995 14.1643 9.59995H19.6286V20.2071C19.6286 20.475 19.5348 20.7026 19.3473 20.8901C19.1598 21.0776 18.9322 21.1714 18.6643 21.1714H5.16431C4.89645 21.1714 4.66878 21.0776 4.48128 20.8901C4.29378 20.7026 4.20003 20.475 4.20003 20.2071V4.13569C4.20003 3.86784 4.29378 3.64016 4.48128 3.45266C4.66878 3.26516 4.89646 3.17141 5.16431 3.17141H13.2001L13.2 8.63567Z" fill="#14142B"/>
</svg>
