<svg width="44" height="44" viewBox="0 0 44 44" fill="none" xmlns="http://www.w3.org/2000/svg">
<path d="M8.9375 22.7201H9.4375H8.9375ZM8.9375 33.0603H8.4375H8.9375ZM33.0529 35.0625V34.5625V35.0625ZM10.9471 35.0625V35.5625H10.9471L10.9471 35.0625ZM35.0625 22.7202H34.5625H35.0625ZM35.0625 33.0603H35.5625H35.0625ZM33.9991 20.0068L33.632 20.3463L33.9991 20.0068ZM24.9558 10.2285L24.5887 10.5679L24.9558 10.2285ZM19.0442 10.2284L19.4113 10.5679L19.0442 10.2284ZM10.0009 20.0068L9.63382 19.6673L10.0009 20.0068ZM17.9808 25.0517H18.4808H17.9808ZM17.9808 34.0614H17.4808H17.9808ZM25.0144 35.0625L25.0144 34.5625H25.0144V35.0625ZM18.9856 35.0625V35.5625V35.0625ZM26.0192 25.0518H26.5192H26.0192ZM26.0192 34.0614H25.5192H26.0192ZM25.0144 24.0507L25.0144 24.5507L25.0144 24.0507ZM18.9856 24.0507L18.9856 24.5507H18.9856L18.9856 24.0507ZM8.4375 22.7201L8.4375 33.0603H9.4375L9.4375 22.7201H8.4375ZM33.0529 34.5625L10.9471 34.5625L10.9471 35.5625L33.0529 35.5625V34.5625ZM34.5625 22.7202V33.0603H35.5625V22.7202H34.5625ZM34.3662 19.6673L25.3229 9.88897L24.5887 10.5679L33.632 20.3463L34.3662 19.6673ZM18.6771 9.88896L9.63382 19.6673L10.368 20.3463L19.4113 10.5679L18.6771 9.88896ZM25.3229 9.88897C23.5331 7.95368 20.4669 7.95368 18.6771 9.88896L19.4113 10.5679C20.8052 9.06069 23.1948 9.06069 24.5887 10.5679L25.3229 9.88897ZM35.5625 22.7202C35.5625 21.5887 35.1353 20.499 34.3662 19.6673L33.632 20.3463C34.2305 20.9935 34.5625 21.8409 34.5625 22.7202H35.5625ZM9.4375 22.7201C9.4375 21.8409 9.76948 20.9934 10.368 20.3463L9.63382 19.6673C8.86473 20.4989 8.4375 21.5887 8.4375 22.7201H9.4375ZM8.4375 33.0603C8.4375 34.444 9.56285 35.5625 10.9471 35.5625L10.9471 34.5625C10.1116 34.5625 9.4375 33.8882 9.4375 33.0603H8.4375ZM33.0529 35.5625C34.4371 35.5625 35.5625 34.444 35.5625 33.0603H34.5625C34.5625 33.8882 33.8884 34.5625 33.0529 34.5625V35.5625ZM17.4808 25.0517L17.4808 34.0614H18.4808L18.4808 25.0517H17.4808ZM25.0144 34.5625H18.9856V35.5625H25.0144V34.5625ZM25.5192 25.0518L25.5192 34.0614H26.5192L26.5192 25.0518H25.5192ZM25.0144 23.5507L18.9856 23.5507L18.9856 24.5507L25.0144 24.5507L25.0144 23.5507ZM26.5192 25.0518C26.5192 24.221 25.8438 23.5507 25.0144 23.5507L25.0144 24.5507C25.295 24.5507 25.5192 24.7768 25.5192 25.0518H26.5192ZM18.4808 25.0517C18.4808 24.7767 18.705 24.5507 18.9856 24.5507L18.9856 23.5507C18.1563 23.5507 17.4808 24.221 17.4808 25.0517H18.4808ZM17.4808 34.0614C17.4808 34.8922 18.1562 35.5625 18.9856 35.5625L18.9856 34.5625C18.705 34.5625 18.4808 34.3364 18.4808 34.0614H17.4808ZM25.0144 35.5625C25.8438 35.5625 26.5192 34.8922 26.5192 34.0614H25.5192C25.5192 34.3364 25.295 34.5625 25.0144 34.5625L25.0144 35.5625Z" fill="#4E46B4"/>
</svg>
