<svg width="14" height="14" viewBox="0 0 14 14" fill="none" xmlns="http://www.w3.org/2000/svg">
<path d="M4.81226 3.96848H5.96694V9.25441C5.96694 9.32316 6.02319 9.37941 6.09194 9.37941H7.02944C7.09819 9.37941 7.15444 9.32316 7.15444 9.25441V3.96848H8.31226C8.41694 3.96848 8.47476 3.84816 8.41069 3.76691L6.66069 1.55129C6.649 1.53635 6.63406 1.52426 6.61701 1.51595C6.59995 1.50764 6.58123 1.50333 6.56226 1.50333C6.54328 1.50333 6.52456 1.50764 6.50751 1.51595C6.49045 1.52426 6.47551 1.53635 6.46382 1.55129L4.71382 3.76535C4.64976 3.84816 4.70757 3.96848 4.81226 3.96848ZM12.281 8.78566H11.3435C11.2748 8.78566 11.2185 8.84191 11.2185 8.91066V11.3169H1.90601V8.91066C1.90601 8.84191 1.84976 8.78566 1.78101 8.78566H0.843506C0.774756 8.78566 0.718506 8.84191 0.718506 8.91066V12.0044C0.718506 12.281 0.941943 12.5044 1.21851 12.5044H11.906C12.1826 12.5044 12.406 12.281 12.406 12.0044V8.91066C12.406 8.84191 12.3498 8.78566 12.281 8.78566Z" fill="#373751"/>
</svg>
