<svg width="20" height="31" viewBox="0 0 20 31" fill=" " xmlns="http://www.w3.org/2000/svg">
<path d="M19.2838 11.7755L13.333 10.9106L10.6729 5.51766C10.6002 5.37 10.4807 5.25047 10.333 5.17782C9.96273 4.995 9.51273 5.14735 9.32757 5.51766L6.66741 10.9106L0.716633 11.7755C0.552571 11.7989 0.402571 11.8763 0.287727 11.9934C0.148887 12.1361 0.0723803 12.3281 0.0750171 12.5272C0.077654 12.7263 0.159219 12.9162 0.30179 13.0552L4.60726 17.2528L3.59007 23.1802C3.56622 23.318 3.58148 23.4598 3.63411 23.5895C3.68675 23.7192 3.77467 23.8315 3.88789 23.9137C4.00111 23.9959 4.1351 24.0448 4.27468 24.0547C4.41426 24.0647 4.55383 24.0353 4.67757 23.97L10.0002 21.1716L15.3229 23.97C15.4682 24.0473 15.6369 24.0731 15.7987 24.045C16.2065 23.9747 16.4807 23.588 16.4104 23.1802L15.3932 17.2528L19.6987 13.0552C19.8159 12.9403 19.8932 12.7903 19.9166 12.6263C19.9799 12.2161 19.694 11.8364 19.2838 11.7755Z" fill="#E5E5EB"/>
</svg>
