<svg width="44" height="43" viewBox="0 0 44 43" fill="none" xmlns="http://www.w3.org/2000/svg">
<path fill-rule="evenodd" clip-rule="evenodd" d="M27.9724 12.5617C26.2045 11.3805 24.1261 10.75 22 10.75V0C26.2523 0 30.4091 1.26095 33.9448 3.62341C37.4804 5.98585 40.2361 9.3437 41.8634 13.2723C43.4907 17.2009 43.9165 21.5239 43.0869 25.6944C42.2573 29.865 40.2096 33.696 37.2028 36.7028C34.196 39.7096 30.365 41.7573 26.1944 42.5869C22.0239 43.4165 17.7009 42.9907 13.7723 41.3634C9.84369 39.7361 6.48585 36.9804 4.12341 33.4448C1.76095 29.9091 0.5 25.7523 0.5 21.5H11.25C11.25 23.6261 11.8805 25.7045 13.0617 27.4724C14.2429 29.2402 15.9218 30.618 17.8862 31.4317C19.8504 32.2454 22.0119 32.4582 24.0972 32.0434C26.1825 31.6287 28.0979 30.6048 29.6014 29.1014C31.1048 27.5979 32.1287 25.6825 32.5434 23.5972C32.9582 21.5119 32.7454 19.3504 31.9317 17.3862C31.118 15.4218 29.7402 13.7429 27.9724 12.5617Z" fill="url(#paint0_linear_10885_36213)"/>
<path fill-rule="evenodd" clip-rule="evenodd" d="M11.25 5.6813e-06C11.25 1.41172 10.9719 2.8096 10.4317 4.11386C9.89146 5.4181 9.09963 6.60317 8.1014 7.60141C7.10317 8.59964 5.9181 9.39147 4.61385 9.93172C3.30959 10.4719 1.91171 10.75 0.5 10.75L0.5 21.5C3.32342 21.5 6.11919 20.9439 8.7277 19.8634C11.3362 18.7829 13.7064 17.1993 15.7028 15.2028C17.6992 13.2064 19.2829 10.8362 20.3634 8.2277C21.4439 5.61919 22 2.82342 22 0L11.25 5.6813e-06Z" fill="url(#paint1_linear_10885_36213)"/>
<defs>
<linearGradient id="paint0_linear_10885_36213" x1="0.5" y1="0" x2="43.5" y2="43" gradientUnits="userSpaceOnUse">
<stop stop-color="#FFC107"/>
<stop offset="1" stop-color="#8B8B8B"/>
</linearGradient>
<linearGradient id="paint1_linear_10885_36213" x1="0.5" y1="0" x2="43.5" y2="43" gradientUnits="userSpaceOnUse">
<stop stop-color="#FFC107"/>
<stop offset="1" stop-color="#8B8B8B"/>
</linearGradient>
</defs>
</svg>
